<svg xmlns="http://www.w3.org/2000/svg" viewBox="0 0 24 24"><title>CoinDesk</title><path d="M18.002 6.415v1.272a.31.31 0 0 1-.295.31h-4.03a.31.31 0 0 1-.31-.31V6.415a.31.31 0 0 1 .31-.31h4.03a.31.31 0 0 1 .296.31zm-5.462 0v5.827a.31.31 0 0 1-.31.31H8.199a.31.31 0 0 1-.31-.31V6.415a.31.31 0 0 1 .31-.31h4.03a.31.31 0 0 1 .31.31zm-5.772 0v9.11a.31.31 0 0 1-.31.31H2.428a.31.31 0 0 1-.31-.31v-9.11a.31.31 0 0 1 .31-.31H6.46a.31.31 0 0 1 .31.31zm14.77 0v11.23a.31.31 0 0 1-.31.31H1.208a.31.31 0 0 1-.31-.31V6.415a.31.31 0 0 1 .31-.31h1.22a.31.31 0 0 1 .31.31v10.61h17.92V6.415a.31.31 0 0 1 .31-.31h1.22a.31.31 0 0 1 .31.31z"/></svg>
