<svg xmlns="http://www.w3.org/2000/svg" viewBox="0 0 24 24" fill="currentColor">
  <path d="M21.6 0H2.4C1.08 0 0 1.08 0 2.4v19.2C0 22.92 1.08 24 2.4 24h19.2c1.32 0 2.4-1.08 2.4-2.4V2.4C24 1.08 22.92 0 21.6 0zM8.4 18H6V6h4.8c2.28 0 3.6 1.2 3.6 3 0 1.2-.6 2.04-1.56 2.52 1.2.48 1.92 1.44 1.92 2.88 0 2.04-1.44 3.6-4.08 3.6H8.4zm9.6 0h-2.4V6H18v12z"/>
  <path d="M8.4 8.4v2.4h2.04c.84 0 1.32-.48 1.32-1.2s-.48-1.2-1.32-1.2H8.4zm0 4.2v2.64h2.28c.96 0 1.44-.48 1.44-1.32 0-.84-.48-1.32-1.44-1.32H8.4z"/>
</svg>
